<?xml version="1.0" encoding="UTF-8" standalone="no"?>
<svg width="50px" height="50px" viewBox="0 0 50 50" version="1.1" xmlns="http://www.w3.org/2000/svg" xmlns:xlink="http://www.w3.org/1999/xlink" xmlns:sketch="http://www.bohemiancoding.com/sketch/ns">
    <!-- Generator: Sketch 3.0.4 (8054) - http://www.bohemiancoding.com/sketch -->
    <title>FACEBOOK</title>
    <desc>Created with Sketch.</desc>
    <defs></defs>
    <g id="Page-4" stroke="none" stroke-width="1" fill="none" fill-rule="evenodd" sketch:type="MSPage">
        <g id="FB-logo-2" sketch:type="MSLayerGroup" transform="translate(10.000000, 10.000000)" fill="#FFFFFF">
            <g id="White" transform="translate(0.162936, -0.283429)" sketch:type="MSShapeGroup">
                <path d="M29.1715143,0 L1.70403549,0 C0.762824849,0 0,0.783744 0,1.75076571 L0,29.9714926 C0,30.9383954 0.762824849,31.7222583 1.70403549,31.7222583 L16.4915467,31.7222583 L16.4915467,19.4377783 L12.4679175,19.4377783 L12.4679175,14.6502126 L16.4915467,14.6502126 L16.4915467,11.1195611 C16.4915467,7.02219886 18.9272879,4.79113143 22.4848235,4.79113143 C24.188859,4.79113143 25.6535429,4.92151771 26.0803037,4.97975771 L26.0803037,9.26170514 L23.6129806,9.26289371 C21.6781542,9.26289371 21.3035671,10.2074514 21.3035671,11.5935634 L21.3035671,14.6502126 L25.9178824,14.6502126 L25.3171318,19.4377783 L21.3036828,19.4377783 L21.3036828,31.7222583 L29.17163,31.7222583 C30.1127249,31.7222583 30.8756655,30.9382766 30.8756655,29.9714926 L30.8756655,1.75076571 C30.8756655,0.783744 30.1126093,0 29.1715143,0 L29.1715143,0 Z" id="White_2_"></path>
            </g>
        </g>
    </g>
</svg>