<?xml version="1.0" encoding="UTF-8" standalone="no"?>
<svg width="18px" height="32px" viewBox="0 0 18 32" version="1.1" xmlns="http://www.w3.org/2000/svg" xmlns:xlink="http://www.w3.org/1999/xlink" xmlns:sketch="http://www.bohemiancoding.com/sketch/ns">
    <!-- Generator: Sketch 3.0.4 (8054) - http://www.bohemiancoding.com/sketch -->
    <title>termometer</title>
    <desc>Created with Sketch.</desc>
    <defs></defs>
    <g id="WineList" stroke="none" stroke-width="1" fill="none" fill-rule="evenodd" sketch:type="MSPage">
        <g id="WIneDetailedView" sketch:type="MSArtboardGroup" transform="translate(-324.000000, -1544.000000)">
            <g id="termometer" sketch:type="MSLayerGroup" transform="translate(324.000000, 1544.000000)">
                <path d="M8.77241379,23.74 L8.77241379,3.61 C8.77241379,1.619 7.11310345,0 5.0762069,0 C3.03931034,0 1.38206897,1.619 1.38206897,3.61 L1.38206897,23.741 C0.488275862,24.657 0,25.832 0,27.089 C0,29.797 2.27689655,31.999 5.07827586,31.999 C7.87551724,31.999 10.1534483,29.797 10.1534483,27.089 C10.1534483,25.833 9.6662069,24.656 8.77241379,23.74 L8.77241379,23.74 Z M1.56413793,26.977 C1.59517241,26.074 1.98310345,25.235 2.68655172,24.605 C2.84482759,24.461 2.9337931,24.263 2.9337931,24.054 L2.9337931,21.419 C2.96896552,21.424 3.00103448,21.44 3.04034483,21.44 L4.3737931,21.44 C4.80206897,21.44 5.14965517,21.105 5.14965517,20.689 C5.14965517,20.275 4.80206897,19.939 4.3737931,19.939 L3.04034483,19.939 C3.00206897,19.939 2.97,19.954 2.9337931,19.958 L2.9337931,17.406 C2.96896552,17.41 3.00103448,17.426 3.04034483,17.426 L4.3737931,17.426 C4.80206897,17.426 5.14965517,17.092 5.14965517,16.675 C5.14965517,16.262 4.80206897,15.925 4.3737931,15.925 L3.04034483,15.925 C3.00206897,15.925 2.97,15.941 2.9337931,15.946 L2.9337931,13.604 C2.96896552,13.608 3.00103448,13.625 3.04034483,13.625 L4.3737931,13.625 C4.80206897,13.625 5.14965517,13.289 5.14965517,12.874 C5.14965517,12.46 4.80206897,12.124 4.3737931,12.124 L3.04034483,12.124 C3.00206897,12.124 2.97,12.141 2.9337931,12.146 L2.9337931,10.052 C2.96896552,10.058 3.00103448,10.073 3.04034483,10.073 L4.3737931,10.073 C4.80206897,10.073 5.14965517,9.735 5.14965517,9.322 C5.14965517,8.908 4.80206897,8.57 4.3737931,8.57 L3.04034483,8.57 C3.00206897,8.57 2.97,8.587 2.9337931,8.591 L2.9337931,6.398 C2.96896552,6.403 3.00103448,6.419 3.04034483,6.419 L4.3737931,6.419 C4.80206897,6.419 5.14965517,6.082 5.14965517,5.668 C5.14965517,5.253 4.80206897,4.918 4.3737931,4.918 L3.04034483,4.918 C3.00206897,4.918 2.97,4.932 2.9337931,4.938 L2.9337931,3.61 C2.9337931,2.447 3.89482759,1.5 5.07517241,1.5 C6.25551724,1.5 7.21758621,2.447 7.21758621,3.61 L7.21758621,24.053 C7.21758621,24.26 7.30655172,24.46 7.46586207,24.603 C8.16827586,25.233 8.5562069,26.074 8.58724138,26.977 L1.56413793,26.977 L1.56413793,26.977 Z" id="Shape" fill="#D0011B" sketch:type="MSShapeGroup"></path>
                <ellipse id="Oval-35" stroke="#CB0001" stroke-width="2" sketch:type="MSShapeGroup" cx="13.9655172" cy="3.5" rx="2.5862069" ry="2.5"></ellipse>
            </g>
        </g>
    </g>
</svg>