<?xml version="1.0" encoding="UTF-8" standalone="no"?>
<svg width="50px" height="50px" viewBox="0 0 50 50" version="1.1" xmlns="http://www.w3.org/2000/svg" xmlns:xlink="http://www.w3.org/1999/xlink" xmlns:sketch="http://www.bohemiancoding.com/sketch/ns">
    <!-- Generator: Sketch 3.0.4 (8054) - http://www.bohemiancoding.com/sketch -->
    <title>TWITTER</title>
    <desc>Created with Sketch.</desc>
    <defs></defs>
    <g id="Page-4" stroke="none" stroke-width="1" fill="none" fill-rule="evenodd" sketch:type="MSPage">
        <path d="M17.7964716,40.4571162 C13.4506558,40.4571162 9.4055829,39.1842884 6,37.0027288 C6.60203439,37.0737385 7.2146332,37.1100658 7.83573842,37.1100658 C11.4410848,37.1100658 14.7592712,35.8808309 17.3929658,33.8186717 C14.0255246,33.7565725 11.18356,31.5336135 10.2043623,28.4788269 C10.6741358,28.5686171 11.1562572,28.6167337 11.6520987,28.6167337 C12.3540148,28.6167337 13.0338417,28.522831 13.6796429,28.3470889 C10.1590863,27.6408306 7.50659519,24.5331294 7.50659519,20.8077264 C7.50659519,20.7753745 7.50659519,20.7431597 7.50714399,20.711082 C8.54478896,21.2869731 9.73129613,21.6328368 10.9928518,21.6727284 C8.92798906,20.2939344 7.56929567,17.9404711 7.56929567,15.2729477 C7.56929567,13.8638582 7.94879137,12.5430509 8.61119385,11.4074445 C12.4066997,16.0592633 18.0770459,19.1203557 24.4727696,19.4409959 C24.3416062,18.8782649 24.2734177,18.291407 24.2734177,17.6887844 C24.2734177,13.4425981 27.7190631,10 31.9691131,10 C34.1824264,10 36.1823934,10.9338183 37.5862257,12.4281743 C39.3390952,12.0832701 40.9860462,11.4433606 42.4728845,10.5623198 C41.8982902,12.3577129 40.678169,13.8645436 39.0892537,14.8161828 C40.6459269,14.6302965 42.1290609,14.2169873 43.5091575,13.6054542 C42.4774121,15.1473785 41.1726384,16.5016343 39.6691988,17.585697 C39.6840165,17.9153847 39.6914253,18.2469916 39.6914253,18.5803807 C39.6914253,28.7409321 31.9511399,40.4571162 17.7964716,40.4571162" id="Fill-2" fill="#FFFFFF" sketch:type="MSShapeGroup"></path>
    </g>
</svg>