<?xml version="1.0" encoding="UTF-8" standalone="no"?>
<svg width="40px" height="46px" viewBox="0 0 40 46" version="1.1" xmlns="http://www.w3.org/2000/svg" xmlns:xlink="http://www.w3.org/1999/xlink" xmlns:sketch="http://www.bohemiancoding.com/sketch/ns">
    <!-- Generator: Sketch 3.2.2 (9983) - http://www.bohemiancoding.com/sketch -->
    <title>Shape</title>
    <desc>Created with Sketch.</desc>
    <defs></defs>
    <g id="WineList" stroke="none" stroke-width="1" fill="none" fill-rule="evenodd" sketch:type="MSPage">
        <g id="producteur_wines" sketch:type="MSArtboardGroup" transform="translate(-47.000000, -932.000000)" fill="#9E1130">
            <g id="Legende" sketch:type="MSLayerGroup" transform="translate(45.000000, 811.000000)">
                <path d="M21.8863636,124.8318 C31.0997891,124.8318 38.5909091,132.116197 38.5909091,141.075371 C38.5909091,150.034545 31.0997891,157.318942 21.8863636,157.318942 C20.7055527,157.318942 19.4263855,157.147409 17.9777673,156.805385 L15.1329164,156.120296 L12.6932509,157.693713 L11.9293855,158.1818 L11.9363345,157.071 L11.9486291,154.387302 L10.0109018,152.477058 C6.89824364,149.406113 5.18181818,145.358475 5.18181818,141.075371 C5.18181818,132.116197 12.6729382,124.8318 21.8863636,124.8318 L21.8863636,124.8318 Z M2,141.125 C2,146.6335 4.19727273,151.61438 7.74318182,155.25298 L7.68181818,167 L17.2031818,160.6267 C18.7122727,161.00298 20.2659091,161.25 21.8863636,161.25 C32.8672727,161.25 41.7727273,152.23768 41.7727273,141.125 C41.7727273,130.01232 32.8672727,121 21.8863636,121 C10.9054545,121 2,130.01232 2,141.125 Z" id="Shape" sketch:type="MSShapeGroup"></path>
            </g>
        </g>
    </g>
</svg>