<?xml version="1.0" encoding="UTF-8" standalone="no"?>
<svg width="39px" height="39px" viewBox="0 0 39 39" version="1.1" xmlns="http://www.w3.org/2000/svg" xmlns:xlink="http://www.w3.org/1999/xlink" xmlns:sketch="http://www.bohemiancoding.com/sketch/ns">
    <!-- Generator: Sketch 3.2.2 (9983) - http://www.bohemiancoding.com/sketch -->
    <title>France 2</title>
    <desc>Created with Sketch.</desc>
    <defs></defs>
    <g id="Page-4" stroke="none" stroke-width="1" fill="none" fill-rule="evenodd" sketch:type="MSPage">
        <g id="logo_france" sketch:type="MSLayerGroup" transform="translate(-17.000000, -19.000000)" fill="#AE0035">
            <path d="M39.29175,19 L44.28375,22.80445 L46.9507812,23.38087 L47.8108125,25.28329 L51.1684688,26.02468 L52.2015625,27.6775 L55.9874062,28.33582 L54.4375625,34.86481 L50.1357812,40.40437 L52.5464688,42.38557 L52.8032187,49.40518 L54.5236875,50.15047 L55.0408437,51.39028 L50.4786563,54.53056 L42.5624687,52.71472 L40.2362812,54.78094 L40.3248437,58 L35.8479687,57.34207 L28.3595625,55.93378 L25.2627187,52.9612 L26.8113437,51.3076 L27.671375,41.47687 L24.8316875,39.41026 L23.4557187,35.85814 L17.7739062,34.2061 L17,31.06426 L20.1845937,29.41222 L23.2834687,30.65125 L25.7802812,30.48745 L25.2627187,25.11598 L27.242375,25.19749 L28.9628437,26.76841 L31.6323125,26.605 L32.9221562,24.86638 L35.8479687,23.13166 L36.6222813,19.91143 L39.29175,19 Z" id="France-2" sketch:type="MSShapeGroup"></path>
        </g>
    </g>
</svg>