<?xml version="1.0" encoding="UTF-8" standalone="no"?>
<svg width="46px" height="40px" viewBox="0 0 46 40" version="1.1" xmlns="http://www.w3.org/2000/svg" xmlns:xlink="http://www.w3.org/1999/xlink" xmlns:sketch="http://www.bohemiancoding.com/sketch/ns">
    <!-- Generator: Sketch 3.2.2 (9983) - http://www.bohemiancoding.com/sketch -->
    <title>broken_heart 2</title>
    <desc>Created with Sketch.</desc>
    <defs></defs>
    <g id="WineList" stroke="none" stroke-width="1" fill="none" fill-rule="evenodd" sketch:type="MSPage">
        <g id="producteur_wines" sketch:type="MSArtboardGroup" transform="translate(-406.000000, -869.000000)" stroke="#ccc" stroke-width="3">
            <g id="Legende" sketch:type="MSLayerGroup" transform="translate(45.000000, 811.000000)">
                <g id="broken_heart-2" transform="translate(363.000000, 59.000000)" sketch:type="MSShapeGroup">
                    <path d="M19.7974318,28.9962811 C19.4460103,28.6448596 19.4460103,28.0754096 19.7974318,27.7239881 L25.1096922,22.4094278 C25.2237662,22.2948938 25.2237662,22.1099835 25.1096922,21.9954495 L19.7965119,16.6781294 C19.4455503,16.3271679 19.4455503,15.7581778 19.7960519,15.4067563 L25.1096922,10.0829965 C25.2237662,9.9684625 25.2237662,9.78355223 25.1096922,9.66901826 L19.1313869,3.69071288 C14.5058703,-0.66019814 7.30908904,-0.582922207 3.00693545,4.32271962 C-0.866060722,8.7389472 -0.454382387,15.469773 3.69873904,19.6228944 L4.98069158,20.9048469 L20.440018,36.3646333 C20.8825147,36.80713 21.6000769,36.80713 22.0425737,36.3646333 L24.3590117,34.0481952 C24.4937846,33.9134223 24.4937846,33.6944739 24.3590117,33.559241 L19.7974318,28.9962811 L19.7974318,28.9962811 Z" id="Shape"></path>
                    <path d="M37.0640031,2.76478161 C32.7512701,-0.43067022 26.7890639,-0.000132877928 22.7628957,3.4547453 C22.6897596,3.51730201 22.5940846,3.60423743 22.4979497,3.69347274 C22.2684218,3.90598155 22.2578423,4.25786303 22.4781707,4.47957137 C23.6787075,5.6874678 27.2246609,9.23894089 27.2246609,9.23894089 C27.5756225,9.58990242 27.5760824,10.1593525 27.2251209,10.510774 L21.9119405,15.8340738 C21.7978665,15.9486078 21.7978665,16.133518 21.9119405,16.247592 L27.2251209,21.5658322 C27.5760824,21.9172537 27.5760824,22.4867037 27.2251209,22.8376652 L21.9128605,28.1531455 C21.7987865,28.2676795 21.7987865,28.4525897 21.9128605,28.5671237 L25.6317648,32.2869479 C25.7665377,32.4221808 25.9854861,32.4221808 26.120719,32.2869479 L37.1486387,21.2590283 L38.4204717,19.9871952 C43.2561972,15.1514697 42.7732226,6.99517898 37.0640031,2.76478161 L37.0640031,2.76478161 Z" id="Shape"></path>
                </g>
            </g>
        </g>
    </g>
</svg>