<?xml version="1.0" encoding="UTF-8" standalone="no"?>
<svg width="40px" height="36px" viewBox="0 0 40 36" version="1.1" xmlns="http://www.w3.org/2000/svg" xmlns:xlink="http://www.w3.org/1999/xlink" xmlns:sketch="http://www.bohemiancoding.com/sketch/ns">
    <!-- Generator: Sketch 3.2.2 (9983) - http://www.bohemiancoding.com/sketch -->
    <title>Shape 4</title>
    <desc>Created with Sketch.</desc>
    <defs></defs>
    <g id="WineList" stroke="none" stroke-width="1" fill="none" fill-rule="evenodd" sketch:type="MSPage">
        <g id="producteur_wines" sketch:type="MSArtboardGroup" transform="translate(-220.000000, -870.000000)" fill="#cb0001">
            <g id="Legende" sketch:type="MSLayerGroup" transform="translate(45.000000, 811.000000)">
                <path d="M203.552586,59 C200.143931,59 197.056613,60.5907385 194.927824,63.3128792 C192.799532,60.5912367 189.711716,59 186.303062,59 C180.686404,59 175,63.5599842 175,72.275916 C175,81.3395884 184.741218,88.1872867 193.871649,93.893619 C194.19448,94.0953882 194.56165,94.1965219 194.927824,94.1965219 C195.293997,94.1965219 195.661167,94.0953882 195.983998,93.893619 C205.114429,88.1872867 214.855647,81.3395884 214.855647,72.275916 C214.855647,63.5599842 209.169243,59 203.552586,59 L203.552586,59 Z M178.985565,72.275916 C178.985565,65.892536 182.778826,62.9855647 186.303062,62.9855647 C189.280278,62.9855647 191.813105,64.8727296 193.077525,68.0342788 C193.380428,68.7905397 194.112776,69.2867425 194.927824,69.2867425 C195.742872,69.2867425 196.475219,68.7905397 196.778122,68.0337806 C198.042542,64.8722314 200.575369,62.9850665 203.552586,62.9850665 C207.076821,62.9855647 210.870082,65.892536 210.870082,72.275916 C210.870082,79.4584018 201.029723,86.0156522 194.927824,89.8522564 C188.825924,86.0156522 178.985565,79.4584018 178.985565,72.275916 Z" id="Shape-4" sketch:type="MSShapeGroup"></path>
            </g>
        </g>
    </g>
</svg>