<?xml version="1.0" encoding="UTF-8" standalone="no"?>
<svg width="150px" height="150px" viewBox="0 0 150 150" version="1.1" xmlns="http://www.w3.org/2000/svg" xmlns:xlink="http://www.w3.org/1999/xlink" xmlns:sketch="http://www.bohemiancoding.com/sketch/ns">
    <!-- Generator: Sketch 3.2.2 (9983) - http://www.bohemiancoding.com/sketch -->
    <title>Slice 16 + Grapes 2 + Rectangle 13</title>
    <desc>Created with Sketch.</desc>
    <defs></defs>
    <g id="Page-4" stroke="none" stroke-width="1" fill="none" fill-rule="evenodd" sketch:type="MSPage">
        <g id="Slice-16-+-Grapes-2-+-Rectangle-13" sketch:type="MSLayerGroup">
            <rect id="Rectangle-13" fill="#CB0001" sketch:type="MSShapeGroup" x="0" y="0" width="150" height="150"></rect>
            <g id="Grapes-2" transform="translate(43.000000, 35.000000)" fill="#FFFFFF" sketch:type="MSShapeGroup">
                <path d="M0.105270575,0.490777661 C0.105270575,0.490777661 25.7773002,28.9671787 64.4435573,29.4771654 C64.4435573,29.4771654 51.4101197,24.5253074 36.8765035,18.4456871 C22.1754603,12.2960843 5.93894944,4.99177204 0.105270575,0.490777661 L0.105270575,0.490777661 Z" id="Shape"></path>
                <path d="M41.9726404,4.99981599 C41.9726404,4.99981599 36.1009277,9.06281709 36.8765035,16.8368963 C37.6520793,24.6109755 41.648765,6.10787064 41.9726404,4.99981599 L41.9726404,4.99981599 Z" id="Shape"></path>
                <ellipse id="Oval" cx="38.3594296" cy="73.5145952" rx="7.278179" ry="7.46559357"></ellipse>
                <ellipse id="Oval" cx="14.7392646" cy="37.6224731" rx="8.36037779" ry="8.57565921"></ellipse>
                <ellipse id="Oval" cx="54.6869854" cy="39.5856795" rx="7.98123052" ry="8.18674881"></ellipse>
                <ellipse id="Oval" cx="44.6502982" cy="56.6399888" rx="5.33492638" ry="5.47230181"></ellipse>
                <path d="M20.8756454,55.3489342 C20.8756454,51.2807045 24.0893053,47.9846944 28.0534465,47.9846944 C32.0171957,47.9846944 35.2312477,51.2803023 35.2312477,55.3489342 C35.2312477,59.4143484 32.0171957,62.7107607 28.0534465,62.7107607 C24.0893053,62.7103585 20.8756454,59.4143484 20.8756454,55.3489342 L20.8756454,55.3489342 Z" id="Shape"></path>
                <path d="M27.0543732,37.4603874 C27.0543732,33.1355556 30.4715335,29.6312071 34.6862273,29.6312071 C38.9020974,29.6312071 42.3196498,33.1355556 42.3196498,37.4603874 C42.3196498,41.7852192 38.9028816,45.2891655 34.6862273,45.2891655 C30.4719256,45.2891655 27.0543732,41.7844148 27.0543732,37.4603874 L27.0543732,37.4603874 Z" id="Shape"></path>
            </g>
            <text id="C31" sketch:type="MSTextLayer" font-family="Roboto" font-size="20" font-weight="bold" fill="#FFFFFF">
                <tspan x="104" y="31">C31</tspan>
            </text>
        </g>
    </g>
</svg>