<?xml version="1.0" encoding="utf-8"?>
<!-- Generator: Adobe Illustrator 16.0.0, SVG Export Plug-In . SVG Version: 6.00 Build 0)  -->
<!DOCTYPE svg PUBLIC "-//W3C//DTD SVG 1.1//EN" "http://www.w3.org/Graphics/SVG/1.1/DTD/svg11.dtd">
<svg version="1.1" id="Layer_1" xmlns:sketch="http://www.bohemiancoding.com/sketch/ns"
	 xmlns="http://www.w3.org/2000/svg" xmlns:xlink="http://www.w3.org/1999/xlink" x="0px" y="0px" width="49px" height="49px"
	 viewBox="0 0 49 49" enable-background="new 0 0 49 49" xml:space="preserve">
<title>france</title>
<desc>Created with Sketch.</desc>
<g id="Page-4" sketch:type="MSPage">
	<path id="France-2" sketch:type="MSShapeGroup" fill="#CB0001" d="M27.436,1l6.145,4.683l3.282,0.709l1.059,2.342l4.133,0.912
		l1.271,2.035l4.659,0.81l-1.907,8.036l-5.294,6.818l2.967,2.438l0.315,8.64l2.118,0.917l0.636,1.526l-5.614,3.865l-9.744-2.235
		l-2.862,2.543L28.707,49l-5.51-0.81l-9.216-1.733l-3.812-3.658l1.906-2.035l1.058-12.1L9.639,26.12l-1.694-4.372l-6.993-2.033
		L0,15.848l3.919-2.033l3.814,1.525l3.073-0.202l-0.637-6.611l2.437,0.101l2.118,1.933l3.285-0.201l1.588-2.14l3.601-2.135
		l0.953-3.963L27.436,1z"/>
</g>
</svg>
