<?xml version="1.0" encoding="UTF-8" standalone="no"?>
<svg width="50px" height="50px" viewBox="0 0 50 50" version="1.1" xmlns="http://www.w3.org/2000/svg" xmlns:xlink="http://www.w3.org/1999/xlink" xmlns:sketch="http://www.bohemiancoding.com/sketch/ns">
    <!-- Generator: Sketch 3.0.4 (8054) - http://www.bohemiancoding.com/sketch -->
    <title>STORE</title>
    <desc>Created with Sketch.</desc>
    <defs></defs>
    <g id="Page-4" stroke="none" stroke-width="1" fill="none" fill-rule="evenodd" sketch:type="MSPage">
        <g id="Store-2" sketch:type="MSLayerGroup" transform="translate(1.000000, 1.000000)">
            <g id="Your_Icon" transform="translate(0.075444, 0.010935)" sketch:type="MSShapeGroup">
                <ellipse id="Oval-105" stroke="#FC3432" fill="#FC3432" cx="23.918085" cy="23.918085" rx="23.918085" ry="23.918085"></ellipse>
                <path d="M15.2216521,35.3692109 L32.7894093,35.3692109 L15.2216521,35.3692109 Z M33.4981159,35.4447738 C33.8741021,35.4447738 34.2059084,35.1400848 34.2059084,34.7628799 L34.2059084,24.4354469 C34.4892692,24.4997362 34.5971291,24.537213 34.8021847,24.537213 C35.9922999,24.537213 36.8792495,23.3099258 36.9395779,22.5058515 L36.9737031,22.1265138 L36.9441483,22.1265138 C36.9456717,22.1265138 36.9481092,22.0561306 36.9362264,22.0171304 C36.9182497,21.9592395 36.8826011,21.9193253 36.8411634,21.8818485 L33.8753209,12.1644029 C33.8317503,12.0215037 33.69982,11.9261361 33.549913,11.9261361 L14.4617578,11.9261361 C14.3115461,11.9261361 14.1787017,12.0248553 14.1354359,12.1689732 L11.2134686,21.8577781 C11.1452182,21.9037861 11.0918976,21.9601536 11.0675225,22.0415055 C11.0583819,22.0741073 11.0620381,22.1265138 11.0620381,22.1265138 L11.0370536,22.1265138 L11.0647803,22.5061562 C11.1254134,23.3099258 12.0178475,24.5311192 13.2082673,24.5311192 C13.4136277,24.5311192 13.5214876,24.4994315 13.8048483,24.4354469 L13.8048483,34.7628799 C13.8048483,35.1400848 14.137264,35.4447738 14.5135549,35.4447738 L33.4981159,35.4447738 Z M29.7413008,22.1265138 L28.461607,12.4928576 L30.5054607,12.4928576 L32.6364555,22.1265138 L29.7413008,22.1265138 L29.7413008,22.1265138 Z M22.562219,22.1265138 L22.985432,12.4928576 L24.9494572,12.4928576 L25.3537794,22.1265138 L22.562219,22.1265138 L22.562219,22.1265138 Z M15.3938014,22.1265138 L17.5019444,12.4928576 L19.5588997,12.4928576 L18.2542215,22.1265138 L15.3938014,22.1265138 L15.3938014,22.1265138 Z M15.2213474,30.627641 L15.2213474,23.6307633 C15.5047082,24.1301485 16.1491253,24.538127 16.8380271,24.538127 C17.6216872,24.538127 18.2499559,24.0094917 18.620153,23.4205279 C18.9897407,24.0094917 19.6280641,24.538127 20.4120289,24.538127 C21.1956889,24.538127 21.8391921,24.0094917 22.2084751,23.4205279 C22.5780628,24.0094917 23.2236988,24.538127 24.0079682,24.538127 C24.7916283,24.538127 25.4387877,24.0094917 25.8086801,23.4205279 C26.1779631,24.0094917 26.8254272,24.538127 27.6087826,24.538127 C28.3933567,24.538127 29.0408208,24.0094917 29.4110179,23.4205279 C29.780301,24.0094917 30.3884602,24.538127 31.1727296,24.538127 C31.8619361,24.538127 32.5054392,24.1301485 32.7888,23.6307633 L32.7888,30.6279457 L15.2213474,30.6279457 L15.2213474,30.627641 Z" id="Shape" fill="#FFFFFF"></path>
            </g>
        </g>
    </g>
</svg>