<?xml version="1.0" encoding="UTF-8" standalone="no"?>
<svg width="50px" height="50px" viewBox="0 0 50 50" version="1.1" xmlns="http://www.w3.org/2000/svg" xmlns:xlink="http://www.w3.org/1999/xlink" xmlns:sketch="http://www.bohemiancoding.com/sketch/ns">
    <!-- Generator: Sketch 3.0.4 (8054) - http://www.bohemiancoding.com/sketch -->
    <title>Yipee</title>
    <desc>Created with Sketch.</desc>
    <defs></defs>
    <g id="Page-4" stroke="none" stroke-width="1" fill="none" fill-rule="evenodd" sketch:type="MSPage">
        <g id="Yipee-2" sketch:type="MSLayerGroup" transform="translate(1.000000, 1.000000)">
            <g id="Tick" sketch:type="MSShapeGroup">
                <path d="M23.87904,47.75808 C37.0670696,47.75808 47.75808,37.0670696 47.75808,23.87904 C47.75808,10.6910104 37.0670696,0 23.87904,0 C10.6910104,0 0,10.6910104 0,23.87904 C0,37.0670696 10.6910104,47.75808 23.87904,47.75808 Z" id="Oval" fill="#FFFFFF"></path>
                <g id="Shape-2-+-Shape-3" transform="translate(15.360000, 18.720000)" fill="#33CE69">
                    <path d="M11.7030321,-1.73222026 C12.0958082,-1.73222026 12.3758891,-1.60160508 12.3758891,-1.45024515 L12.3758891,13.1993989 C12.3758891,13.3515272 12.0949796,13.4821423 11.7030321,13.4821423 C11.2539083,13.4821423 10.9738274,13.3515272 10.9738274,13.1993989 L10.9738274,-1.45024515 C10.9738274,-1.60160508 11.2539083,-1.73222026 11.7030321,-1.73222026 Z" id="Shape-2" transform="translate(11.693827, 5.833810) rotate(45.000000) translate(-11.693827, -5.833810) "></path>
                    <path d="M3.79126558,3.32059222 C4.18404175,3.32059222 4.46412264,3.40186591 4.46412264,3.49604778 L4.46412264,12.6116094 C4.46412264,12.7062693 3.06206088,12.8018537 3.06206088,12.7071938 L3.06206088,3.49604778 C3.06206088,3.40186591 3.34214177,3.32059222 3.79126558,3.32059222 Z" id="Shape-3" transform="translate(3.782061, 8.000592) rotate(-45.000000) translate(-3.782061, -8.000592) "></path>
                </g>
            </g>
        </g>
    </g>
</svg>