<?xml version="1.0" encoding="UTF-8" standalone="no"?>
<svg width="50px" height="50px" viewBox="0 0 50 50" version="1.1" xmlns="http://www.w3.org/2000/svg" xmlns:xlink="http://www.w3.org/1999/xlink" xmlns:sketch="http://www.bohemiancoding.com/sketch/ns">
    <!-- Generator: Sketch 3.0.4 (8054) - http://www.bohemiancoding.com/sketch -->
    <title>DELIVERYMAN</title>
    <desc>Created with Sketch.</desc>
    <defs></defs>
    <g id="Page-4" stroke="none" stroke-width="1" fill="none" fill-rule="evenodd" sketch:type="MSPage">
        <g id="DeliveryMan-2" sketch:type="MSLayerGroup" transform="translate(2.000000, 1.000000)">
            <g id="Symbol_2_copy_3" sketch:type="MSShapeGroup">
                <ellipse id="Oval-105" stroke="#FC3432" fill="#FC3432" cx="23.5" cy="24" rx="23.5" ry="24"></ellipse>
                <path d="M35.1430868,17.763646 L34.0603026,15.9304954 C33.9638538,15.7672343 33.7906723,15.6673729 33.6039026,15.6673729 L27.0270011,15.6673729 C26.8402314,15.6673729 26.6670499,15.7672343 26.5706011,15.9304954 L25.4531806,17.82242 C25.4491841,17.8289505 25.4478519,17.8365693 25.4443883,17.8433719 C25.4286688,17.8724868 25.41588,17.9026901 25.4054891,17.9347981 C25.4014926,17.9467706 25.3977625,17.9581989 25.3945653,17.9704435 C25.3860395,18.0055446 25.3807108,18.0417342 25.3788458,18.0790121 C25.3785793,18.0858147 25.3769807,18.0923451 25.3769807,18.0991477 C25.3769807,18.1005082 25.3764479,18.1021408 25.3764479,18.1035013 L25.3764479,19.8367905 L22.3606914,17.0259777 C21.8872397,16.4483054 21.160943,16.1313067 20.390152,16.2292633 C19.1658918,16.3846335 18.2970534,17.5241963 18.4489203,18.7745046 L19.3031049,25.9628929 L17.8052179,29.8778952 L13.2233675,30.0490473 C12.4962715,30.1181612 11.9428899,30.7576007 11.9759276,31.5102346 C12.0102975,32.2859971 12.6537335,32.8862539 13.4578286,32.8495202 L19.7224706,32.5532012 L21.7961196,27.5152343 L25.5267162,30.4348878 L26.4043469,35.0396684 C26.5801927,35.7631874 27.2827769,36.2257607 28.0064092,36.0793698 C28.7524219,35.9283533 29.2365309,35.1887803 29.0801347,34.3819981 L27.9198184,28.7086733 L23.7290919,25.4635859 L23.2207375,21.1872323 L25.3767143,23.1251421 L25.3767143,24.9226473 C25.3767143,25.2230478 25.6154384,25.4668511 25.9095805,25.4668511 L34.7215896,25.4668511 C35.0157318,25.4668511 35.2544558,25.2230478 35.2544558,24.9226473 L35.2544558,18.156017 C35.2563209,18.1386025 35.2597845,18.12146 35.2597845,18.1032292 C35.2595181,17.9747971 35.2160895,17.8567049 35.1430868,17.763646 L35.1430868,17.763646 Z M30.8484513,16.7557805 L33.3030997,16.7557805 L33.777617,17.5592975 L30.8484513,17.5592975 L30.8484513,16.7557805 L30.8484513,16.7557805 Z M27.3278041,16.7557805 L29.7829853,16.7557805 L29.7829853,17.5592975 L26.8530202,17.5592975 L27.3278041,16.7557805 L27.3278041,16.7557805 Z M34.1884569,24.3781714 L26.4421804,24.3781714 L26.4421804,23.3643197 L29.8818319,23.3700338 L30.0142492,23.3692175 C30.7210963,23.3567008 31.2536961,22.793994 31.2422395,22.1115625 C31.2310493,21.4492664 30.7112383,20.9192119 30.0699337,20.8990763 L26.5101208,20.8933622 L26.4421804,20.8302346 L26.4421804,18.6477051 L34.1884569,18.6477051 L34.1884569,24.3781714 L34.1884569,24.3781714 Z M22.1989665,15.9522636 C23.3664764,16.1011033 24.4308767,15.2554106 24.5766156,14.06306 C24.7223546,12.8707095 23.894014,11.7836623 22.7267705,11.6348226 C21.559527,11.4859828 20.4948602,12.3316756 20.3488549,13.5240262 C20.2033824,14.7161046 21.0314565,15.8034239 22.1989665,15.9522636 L22.1989665,15.9522636 Z" id="Shape" fill="#FFFFFF"></path>
            </g>
        </g>
    </g>
</svg>