<?xml version="1.0" encoding="UTF-8" standalone="no"?>
<svg width="49px" height="49px" viewBox="0 0 49 49" version="1.1" xmlns="http://www.w3.org/2000/svg" xmlns:xlink="http://www.w3.org/1999/xlink" xmlns:sketch="http://www.bohemiancoding.com/sketch/ns">
    <!-- Generator: Sketch 3.0.4 (8054) - http://www.bohemiancoding.com/sketch -->
    <title>france</title>
    <desc>Created with Sketch.</desc>
    <defs></defs>
    <g id="Page-4" stroke="none" stroke-width="1" fill="none" fill-rule="evenodd" sketch:type="MSPage">
        <path d="M27.436,1 L33.58,5.6824 L36.8625,6.39184 L37.921,8.73328 L42.0535,9.64576 L43.325,11.68 L47.9845,12.49024 L46.077,20.52592 L40.7825,27.34384 L43.7495,29.78224 L44.0655,38.42176 L46.183,39.33904 L46.8195,40.86496 L41.2045,44.72992 L31.4615,42.49504 L28.5985,45.03808 L28.7075,49 L23.1975,48.19024 L13.981,46.45696 L10.1695,42.7984 L12.0755,40.7632 L13.134,28.66384 L9.639,26.12032 L7.9455,21.74848 L0.9525,19.7152 L-7.10542736e-15,15.84832 L3.9195,13.81504 L7.7335,15.34 L10.8065,15.1384 L10.1695,8.52736 L12.606,8.62768 L14.7235,10.56112 L18.009,10.36 L19.5965,8.22016 L23.1975,6.08512 L24.1505,2.12176 L27.436,1 Z" id="France-2" fill="#FC3432" sketch:type="MSShapeGroup"></path>
    </g>
</svg>