<?xml version="1.0" encoding="UTF-8" standalone="no"?>
<svg width="78px" height="78px" viewBox="0 0 78 78" version="1.1" xmlns="http://www.w3.org/2000/svg" xmlns:xlink="http://www.w3.org/1999/xlink" xmlns:sketch="http://www.bohemiancoding.com/sketch/ns">
    <!-- Generator: Sketch 3.0.4 (8054) - http://www.bohemiancoding.com/sketch -->
    <title>logo_glass</title>
    <desc>Created with Sketch.</desc>
    <defs></defs>
    <g id="WineList" stroke="none" stroke-width="1" fill="none" fill-rule="evenodd" sketch:type="MSPage">
        <g id="WIneDetailedView" sketch:type="MSArtboardGroup" transform="translate(-127.000000, -687.000000)" stroke="#CB0001">
            <g id="logo_glass" sketch:type="MSLayerGroup" transform="translate(128.000000, 688.000000)">
                <circle id="Oval-98" stroke-width="2" sketch:type="MSShapeGroup" cx="38" cy="38" r="38"></circle>
                <g id="Imported-Layers" transform="translate(25.000000, 15.000000)" fill="#CB0001" sketch:type="MSShapeGroup">
                    <path d="M12.6139171,44.1853439 C12.1809217,44.1853439 11.8922581,43.8966803 11.8922581,43.463685 L11.8922581,28.0201839 C11.8922581,27.5871885 12.1809217,27.2985249 12.6139171,27.2985249 C13.0469124,27.2985249 13.335576,27.5871885 13.335576,28.0201839 L13.335576,43.463685 C13.335576,43.8245144 12.9747465,44.1853439 12.6139171,44.1853439" id="Fill-1"></path>
                    <path d="M12.6139171,28.7418428 C3.44884864,28.7418428 0.0570516652,18.9272813 0.0570516652,12.7210145 C0.0570516652,6.58691362 2.7993556,0.236315036 2.94368739,-0.0523485364 C3.08801917,-0.341012109 3.30451685,-0.485343895 3.59318042,-0.485343895 L21.7068196,-0.485343895 C21.9954831,-0.485343895 22.2841467,-0.341012109 22.3563126,-0.0523485364 C22.5006444,0.236315036 25.2429483,6.58691362 25.2429483,12.7210145 C25.1707824,18.9272813 21.7789855,28.7418428 12.6139171,28.7418428 L12.6139171,28.7418428 Z M4.02617578,1.03013986 C3.44884864,2.54562361 1.42820363,7.8137338 1.42820363,12.7931804 C1.42820363,18.4221201 4.45917114,27.3706908 12.5417512,27.3706908 C20.6243312,27.3706908 23.6552987,18.4221201 23.6552987,12.7931804 C23.6552987,7.8858997 21.7068196,2.54562361 21.0573265,1.03013986 L4.02617578,1.03013986 L4.02617578,1.03013986 Z" id="Fill-2"></path>
                    <path d="M23.2944692,44.1853439 L1.86119899,44.1853439 C1.42820363,44.1853439 1.13954006,43.8966803 1.13954006,43.463685 C1.13954006,43.0306896 1.42820363,42.742026 1.86119899,42.742026 L23.3666351,42.742026 C23.7996305,42.742026 24.088294,43.0306896 24.088294,43.463685 C24.0161282,43.8245144 23.7274646,44.1853439 23.2944692,44.1853439" id="Fill-3"></path>
                    <path d="M24.0125199,11.3498626 L1.80202296,11.3498626 C1.21026264,11.3498626 0.814793542,11.061199 0.814793542,10.6282036 C0.814793542,10.1952083 1.21026264,9.9065447 1.80202296,9.9065447 L24.1113871,9.9065447 C24.7038691,9.9065447 25.0986165,10.1952083 25.0986165,10.6282036 C24.9997493,10.9890331 24.6050018,11.3498626 24.0125199,11.3498626" id="Fill-4"></path>
                </g>
            </g>
        </g>
    </g>
</svg>