<?xml version="1.0" encoding="UTF-8" standalone="no"?>
<svg width="78px" height="78px" viewBox="0 0 78 78" version="1.1" xmlns="http://www.w3.org/2000/svg" xmlns:xlink="http://www.w3.org/1999/xlink" xmlns:sketch="http://www.bohemiancoding.com/sketch/ns">
    <!-- Generator: Sketch 3.0.4 (8054) - http://www.bohemiancoding.com/sketch -->
    <title>logo_forks</title>
    <desc>Created with Sketch.</desc>
    <defs></defs>
    <g id="WineList" stroke="none" stroke-width="1" fill="none" fill-rule="evenodd" sketch:type="MSPage">
        <g id="WIneDetailedView" sketch:type="MSArtboardGroup" transform="translate(-421.000000, -687.000000)" stroke="#CB0001">
            <g id="logo_forks" sketch:type="MSLayerGroup" transform="translate(422.000000, 688.000000)">
                <circle id="Oval-98" stroke-width="2" sketch:type="MSShapeGroup" cx="38" cy="38" r="38"></circle>
                <g id="Imported-Layers" transform="translate(21.000000, 15.000000)" fill="#CB0001" sketch:type="MSShapeGroup">
                    <path d="M6.15456206,20.3683625 C5.79316266,20.3683625 5.43176325,20.0279242 5.43176325,19.5183511 L4.99808397,2.42560486 C4.99808397,1.9160317 5.28720349,1.57559346 5.72088277,1.57559346 C6.08228218,1.57559346 6.44368158,1.9160317 6.44368158,2.42560486 L6.87736087,19.4330608 C6.87736087,19.9433568 6.51596146,20.3683625 6.15456206,20.3683625" id="Fill-1"></path>
                    <path d="M10.419075,20.3683625 L10.419075,20.3683625 C9.98539574,20.3683625 9.69627622,19.9433568 9.69627622,19.5183511 L10.0576756,2.42560486 C10.0576756,2.00059916 10.419075,1.57559346 10.7804744,1.57559346 C11.2141537,1.57559346 11.5032732,2.00059916 11.5032732,2.42560486 L11.0695939,19.5183511 C11.1418738,19.9433568 10.7804744,20.3683625 10.419075,20.3683625" id="Fill-2"></path>
                    <path d="M29.3564038,46.1 C28.9227245,46.1 28.633605,45.8108805 28.633605,45.3772012 L28.633605,32.2945428 C25.5255701,31.571744 22.9957743,28.9696683 22.3452553,25.7893535 C20.2491388,14.8750915 22.7066547,8.36990225 25.0918908,4.75590821 C27.2602872,1.57559346 28.7781647,0.708234891 28.9950044,0.563675129 L30.0792026,0.129995845 L30.0792026,45.3772012 C30.0792026,45.8108805 29.7900831,46.1 29.3564038,46.1 L29.3564038,46.1 Z M28.633605,2.80435143 C28.0553659,3.38259048 27.2602872,4.24994905 26.3206488,5.62326678 C24.0799725,8.9481413 21.7670163,15.164211 23.790853,25.5725139 C24.2968121,28.0300298 26.176089,30.1261464 28.633605,30.8489452 L28.633605,2.80435143 L28.633605,2.80435143 Z" id="Fill-3"></path>
                    <path d="M8.2506786,45.6663207 C7.81699932,45.6663207 7.52787979,45.3772012 7.52787979,44.9435219 L7.52787979,21.235721 C6.3714017,21.1634411 4.20300528,20.7297619 2.39600826,18.3445258 C0.227611838,15.5256104 0.299891718,3.52715024 0.299891718,2.15383251 C0.299891718,1.7924331 0.661291122,1.4310337 1.02269053,1.4310337 C1.45636981,1.4310337 1.74548933,1.7924331 1.74548933,2.15383251 C1.74548933,5.69554666 1.96232898,15.3810507 3.55248635,17.4771672 C5.50404313,20.0792429 8.03383896,19.7901234 8.17839872,19.7901234 C8.39523836,19.7901234 8.612078,19.8624033 8.75663777,19.9346832 C8.90119753,20.0792429 8.97347741,20.2960826 8.97347741,20.4406423 L8.97347741,44.9435219 C8.97347741,45.3772012 8.68435788,45.6663207 8.2506786,45.6663207" id="Fill-4"></path>
                    <path d="M8.2506786,45.6663207 C7.81699932,45.6663207 7.52787979,45.3772012 7.52787979,44.9435219 L7.52787979,20.5129222 C7.52787979,20.2960826 7.60015967,20.0792429 7.74471944,19.9346832 C7.8892792,19.7901234 8.10611884,19.7178435 8.32295848,19.7901234 C8.39523836,19.7901234 10.9250342,20.0792429 12.9488708,17.4771672 C14.5390282,15.3810507 14.8281477,5.69554666 14.7558679,2.15383251 C14.7558679,1.72015322 15.0449874,1.4310337 15.4786667,1.4310337 C15.8400661,1.4310337 16.2014655,1.72015322 16.2014655,2.15383251 C16.2014655,3.52715024 16.2737454,15.5256104 14.1053489,18.3445258 C12.2983519,20.657482 10.1299555,21.1634411 8.97347741,21.235721 L8.97347741,44.9435219 C8.97347741,45.3772012 8.68435788,45.6663207 8.2506786,45.6663207" id="Fill-5"></path>
                </g>
            </g>
        </g>
    </g>
</svg>