<?xml version="1.0" encoding="UTF-8" standalone="no"?>
<svg width="50px" height="50px" viewBox="0 0 50 50" version="1.1" xmlns="http://www.w3.org/2000/svg" xmlns:xlink="http://www.w3.org/1999/xlink" xmlns:sketch="http://www.bohemiancoding.com/sketch/ns">
    <!-- Generator: Sketch 3.0.4 (8054) - http://www.bohemiancoding.com/sketch -->
    <title>MAIL</title>
    <desc>Created with Sketch.</desc>
    <defs></defs>
    <g id="Page-4" stroke="none" stroke-width="1" fill="none" fill-rule="evenodd" sketch:type="MSPage">
        <path d="M37,14 L13,14 C10.791,14 9,15.716 9,17.833 L9,32.167 C9,34.283 10.791,36 13,36 L37,36 C39.209,36 41,34.283 41,32.167 L41,17.833 C41,15.716 39.209,14 37,14 L37,14 Z M37.561,30.439 C38.147,31.025 38.147,31.974 37.561,32.56 C37.268,32.854 36.884,33 36.5,33 C36.116,33 35.732,32.854 35.439,32.561 L30,27.121 L25,32.121 L20,27.121 L14.561,32.56 C14.268,32.854 13.884,33 13.5,33 C13.116,33 12.732,32.854 12.439,32.561 C11.853,31.975 11.853,31.026 12.439,30.44 L17.879,25 L12.439,19.561 C11.853,18.976 11.853,18.025 12.439,17.44 C13.025,16.854 13.974,16.854 14.56,17.44 L25,27.879 L28.93,23.949 C28.933,23.946 28.934,23.941 28.938,23.937 C28.942,23.933 28.946,23.933 28.95,23.929 L35.44,17.439 C36.026,16.853 36.975,16.853 37.561,17.439 C38.147,18.024 38.147,18.975 37.561,19.56 L32.121,25 L37.561,30.439 L37.561,30.439 Z" id="Shape-2" fill="#FFFFFF" sketch:type="MSShapeGroup"></path>
    </g>
</svg>