<?xml version="1.0" encoding="UTF-8" standalone="no"?>
<svg width="50px" height="50px" viewBox="0 0 50 50" version="1.1" xmlns="http://www.w3.org/2000/svg" xmlns:xlink="http://www.w3.org/1999/xlink" xmlns:sketch="http://www.bohemiancoding.com/sketch/ns">
    <!-- Generator: Sketch 3.0.4 (8054) - http://www.bohemiancoding.com/sketch -->
    <title>Oops</title>
    <desc>Created with Sketch.</desc>
    <defs></defs>
    <g id="Page-4" stroke="none" stroke-width="1" fill="none" fill-rule="evenodd" sketch:type="MSPage">
        <g id="Oops-2" sketch:type="MSLayerGroup" transform="translate(1.000000, 1.000000)">
            <g id="Tick" sketch:type="MSShapeGroup">
                <path d="M23.87904,47.75808 C37.0670696,47.75808 47.75808,37.0670696 47.75808,23.87904 C47.75808,10.6910104 37.0670696,0 23.87904,0 C10.6910104,0 0,10.6910104 0,23.87904 C0,37.0670696 10.6910104,47.75808 23.87904,47.75808 Z" id="Oval" fill="#FFFFFF"></path>
                <g id="Shape-2-+-Shape-3" transform="translate(18.240000, 18.720000)" fill="#FC3432">
                    <path d="M5.7692047,-1.68 C6.16198087,-1.68 6.44206177,-1.54938483 6.44206177,-1.39802489 L6.44206177,13.2516192 C6.44206177,13.4037474 6.16115223,13.5343626 5.7692047,13.5343626 C5.3200809,13.5343626 5.04,13.4037474 5.04,13.2516192 L5.04,-1.39802489 C5.04,-1.54938483 5.3200809,-1.68 5.7692047,-1.68 Z" id="Shape-2" transform="translate(5.760000, 5.880000) rotate(45.000000) translate(-5.760000, -5.880000) "></path>
                    <path d="M5.7692047,-1.68 C6.16198087,-1.68 6.44206177,-1.54938483 6.44206177,-1.39802489 L6.44206177,13.2516192 C6.44206177,13.4037474 6.16115223,13.5343626 5.7692047,13.5343626 C5.3200809,13.5343626 5.04,13.4037474 5.04,13.2516192 L5.04,-1.39802489 C5.04,-1.54938483 5.3200809,-1.68 5.7692047,-1.68 Z" id="Shape-3" transform="translate(5.760000, 5.880000) scale(-1, 1) rotate(45.000000) translate(-5.760000, -5.880000) "></path>
                </g>
            </g>
        </g>
    </g>
</svg>